<svg width="32" height="32" viewBox="0 0 32 32" fill="none" xmlns="http://www.w3.org/2000/svg">
<path d="M23.7567 22.4843L19.8125 18.2762C20.8266 17.0396 21.3823 15.4836 21.3823 13.8637C21.3823 10.0791 18.3806 7 14.6911 7C11.0017 7 8 10.0791 8 13.8637C8 17.6484 11.0017 20.7275 14.6911 20.7275C16.0762 20.7275 17.3961 20.299 18.5246 19.4854L22.4988 23.7254C22.6649 23.9024 22.8883 24 23.1278 24C23.3544 24 23.5694 23.9114 23.7326 23.7502C24.0794 23.4079 24.0904 22.8403 23.7567 22.4843ZM14.6911 8.79054C17.4182 8.79054 19.6367 11.0663 19.6367 13.8637C19.6367 16.6612 17.4182 18.9369 14.6911 18.9369C11.9641 18.9369 9.74551 16.6612 9.74551 13.8637C9.74551 11.0663 11.9641 8.79054 14.6911 8.79054Z" fill="#43607E"/>
</svg>
