<svg width="32" height="32" viewBox="0 0 32 32" fill="none" xmlns="http://www.w3.org/2000/svg">
<path d="M18.6875 17C18.7542 17.0521 19.9991 17.782 21.9524 18.3378C22.8662 18.6982 22.9682 19.7794 22.9957 20.7694C22.9957 20.8085 22.9957 20.8432 22.9996 20.878C23.0035 21.2688 22.98 21.8723 22.9172 22.2197C22.2818 22.6192 19.7912 24 16.0024 24C12.2293 24 9.72299 22.6148 9.08367 22.2154C9.02092 21.868 8.99346 21.2644 9.00131 20.8736C9.00131 20.8389 9.00523 20.8041 9.00523 20.7651C9.03268 19.775 9.13466 18.6938 10.0485 18.3334C12.0018 17.7776 13.1877 17.0478 13.2544 17" stroke="#43607E" stroke-width="1.7" stroke-linecap="round" stroke-linejoin="round"/>
<path d="M13.0263 10.1131C13.0263 10.1014 13.0302 10.0898 13.0302 10.082C13.1581 7.29888 15.131 7 15.9759 7H15.9914C15.9992 7 16.0108 7 16.0224 7C17.069 7.02329 18.848 7.45027 18.9682 10.082C18.9682 10.0936 18.9682 10.1053 18.9721 10.1131C18.9759 10.1402 19.2473 12.7797 18.0147 14.1693C17.5263 14.7205 16.8752 14.9922 16.0186 15C16.0108 15 16.0069 15 15.9992 15V15C15.9914 15 15.9876 15 15.9798 15C15.1271 14.9922 14.4721 14.7205 13.9876 14.1693C12.7589 12.7875 13.0224 10.1363 13.0263 10.1131Z" stroke="#43607E" stroke-width="1.7"/>
</svg>
