<svg width="312" height="319" viewBox="0 0 312 319" fill="none" xmlns="http://www.w3.org/2000/svg">
<g clip-path="url(#clip0_605_10164)">
<path d="M203.158 284.758C212.136 289.325 221.623 292.894 231.381 295.393C239.545 297.483 250.505 296.845 257.406 302.025C262.331 305.722 266.566 312.578 271.081 317.011C271.588 317.51 272.1 318.005 272.612 318.496H311.288V277.951C297.291 266.376 282.049 256.285 268.661 244.001C260.858 236.84 253.698 228.83 248.123 219.799C240.338 207.185 235.008 196.88 219.034 193.143C202.875 189.365 201.07 205.547 204.296 217.089C206.367 224.502 210.349 228.784 210.9 237.049C211.531 246.549 210.865 256.225 203.859 262.969C201.177 265.551 194.334 269.839 193.308 273.502C191.836 278.754 199.475 282.882 203.159 284.757L203.158 284.758Z" fill="#FFB27E"/>
<path d="M232.621 290.824C233.615 300.846 240.192 286.307 238.93 286.638C244.335 285.219 251.303 281.931 253.412 276.39C254.604 273.262 253.934 269.151 251.035 267.477C249.356 266.506 247.297 266.52 245.364 266.691C241.493 267.033 232.799 267.654 231.067 271.811C229.201 276.295 232.142 286.021 232.619 290.824H232.621Z" fill="#E89152"/>
<mask id="mask0_605_10164" style="mask-type:luminance" maskUnits="userSpaceOnUse" x="62" y="34" width="158" height="157">
<path d="M196.302 168.02C226.932 137.402 226.932 87.7604 196.302 57.1426C165.672 26.5248 116.011 26.5248 85.3808 57.1426C54.7508 87.7604 54.7508 137.402 85.3808 168.019C116.011 198.637 165.672 198.637 196.302 168.02Z" fill="white"/>
</mask>
<g mask="url(#mask0_605_10164)">
<path d="M196.302 168.02C226.932 137.402 226.932 87.7604 196.302 57.1426C165.672 26.5248 116.011 26.5248 85.3808 57.1426C54.7508 87.7604 54.7508 137.402 85.3808 168.019C116.011 198.637 165.672 198.637 196.302 168.02Z" fill="#C8D6FF"/>
<path d="M138.942 72.789C137.192 71.43 134.921 70.6225 132.518 70.3384C126.839 69.6672 120.412 71.9268 118.296 76.788C117.234 79.222 115.533 83.103 113.733 84.9954C113.009 85.7546 111.408 86.5255 110.506 87.2067C108.48 88.7352 106.537 90.0062 104.534 91.4616C103.66 92.0962 102.814 92.7409 101.993 93.3955C102.199 93.6497 102.377 93.9155 102.516 94.1913C103.075 95.2911 103.741 96.3245 104.467 97.3197C106.339 99.6224 108.465 101.722 110.735 103.638C111.265 102.875 111.81 102.128 112.372 101.398C113.401 100.059 114.445 98.7385 115.51 97.4543C120.729 91.1609 126.528 85.6533 134.333 82.3604C137.591 80.9864 144.055 76.7648 138.942 72.7923V72.789Z" fill="#FFB27E"/>
<path d="M116.499 87.0154C116.114 86.9439 115.713 86.9572 115.324 87.0851C112.703 87.9491 110.022 88.6386 107.384 89.446C108.415 88.7266 109.447 88.0006 110.502 87.2048C111.405 86.5236 113.004 85.7527 113.73 84.9934C115.53 83.1011 117.23 79.2217 118.292 76.7861C120.408 71.9248 126.837 69.6653 132.515 70.3365C131.305 77.5536 123.412 82.6907 117.692 86.2677C117.292 86.5186 116.895 86.7678 116.497 87.0154H116.499Z" fill="#E89152"/>
<path d="M130.429 132.318C128.064 133.71 125.375 134.938 122.537 136.003C116.635 138.216 110.092 139.716 104.492 140.472C100.666 140.987 95.218 141.718 90.1936 141.557C86.7947 141.451 83.5885 140.936 81.2085 139.675C69.4793 133.463 80.2112 118.689 85.0196 111.391C91.0296 102.27 98.9194 94.7733 106.701 87.2123C107.301 86.6274 107.999 86.0061 108.835 86.031C109.525 86.0509 110.11 86.5111 110.642 86.9514C113.16 89.0298 115.681 91.1083 118.199 93.1867C118.711 93.6087 119.27 94.1304 119.245 94.7933C119.228 95.2518 118.931 95.6439 118.647 96.0044C113.227 102.839 106.351 109.811 102.79 117.849C109.976 115.204 115.319 108.967 122.215 105.523C126.925 103.172 131.152 102.484 132.844 106.357C135.452 112.323 137.062 128.418 130.429 132.319V132.318Z" fill="#141414"/>
<path d="M122.551 107.916C122.546 117.278 122.542 126.642 122.537 136.002C116.635 138.215 110.092 139.715 104.492 140.471C100.666 140.986 95.218 141.717 90.1936 141.556C93.7488 138.491 98.1782 136 101.727 132.736C109.696 125.404 116.722 117.044 122.552 107.916H122.551Z" fill="black"/>
<path d="M129.181 89.8908C129.701 89.3226 130.22 88.7611 130.756 88.2427C133.238 85.847 135.146 83.536 136.599 80.3228C137.647 78.0001 133.735 67.6197 131.333 69.9058C129.467 71.6802 127.783 73.6273 125.968 75.4482C123.483 77.942 121.166 80.5953 118.924 83.3067C117.86 84.5943 116.83 85.2472 117.834 86.8422C118.545 87.9736 119.697 88.7843 120.633 89.7181C121.964 91.0472 124.133 94.5361 126.142 92.9229C127.229 92.0507 128.205 90.9591 129.181 89.8908Z" fill="#072759"/>
<path d="M128.567 89.2555C129.01 88.7703 129.453 88.2919 129.91 87.8499C132.478 85.3694 134.295 82.3473 136.502 79.5761C137.265 78.6191 137.893 77.4013 137.611 76.2101C137.381 75.2415 136.603 74.5155 135.864 73.8492C135.031 73.1016 134.2 72.3523 133.367 71.6047C132.985 71.2608 132.555 70.8969 132.039 70.887C131.363 70.8737 130.992 71.4136 130.618 71.8855C130.171 72.452 129.659 72.9421 129.147 73.4688C128.031 74.6185 126.96 75.8114 125.828 76.9461C123.711 79.0711 121.735 81.3322 119.825 83.6432C118.917 84.7414 118.04 85.2963 118.896 86.657C119.502 87.6223 120.485 88.3118 121.281 89.1076C122.416 90.239 124.264 93.213 125.976 91.839C126.902 91.0963 127.733 90.1659 128.566 89.2555H128.567Z" fill="#B8E1BB"/>
<path d="M117.229 175.406C117.169 177.302 117.096 179.197 117.011 181.091C116.734 187.285 113.23 199.759 116.554 205.198C119.228 209.553 136.341 207.036 141.339 207.036C144.217 207.036 184.237 206.531 184.275 207.036C184.057 204.183 183.738 201.306 183.259 198.3C183.2 197.946 183.141 197.593 183.085 197.239C181.599 188.142 180.697 178.877 181.479 169.649C181.882 164.876 182.723 160.181 183.735 155.526C183.755 155.431 183.775 155.336 183.795 155.245C184.029 154.172 184.272 153.098 184.523 152.028C184.793 150.867 185.071 149.706 185.352 148.548C185.772 146.807 186.198 145.069 186.618 143.331C186.758 142.749 186.896 142.17 187.032 141.59C188.561 135.12 190.303 128.872 190.74 122.175C191.083 116.93 187.187 110.252 183.437 107.092C177.879 102.407 169.792 99.2704 162.884 98.149C156.075 97.0441 149.136 96.8497 142.279 97.5708C137.986 98.0227 134.237 99.7223 130.235 101.171C125.803 102.774 121.969 106.114 119.808 110.202C112.766 123.522 117.103 139.571 117.368 154.05C117.5 161.168 117.452 168.289 117.227 175.404L117.229 175.406Z" fill="#141414"/>
<path d="M183.183 187.083C182.747 181.292 182.614 175.464 182.99 169.65C183.297 164.877 183.939 160.182 184.712 155.527C184.727 155.432 184.742 155.337 184.758 155.246C186.075 147.271 186.974 140.192 186.937 131.98C186.916 127.346 188.127 120.832 187.833 115.734C187.775 114.723 187.657 113.767 187.458 112.897C186.617 109.183 185.164 107.775 183.231 108.482C182.307 108.818 181.273 109.64 180.141 110.928C176.415 115.163 175.921 122.923 174.618 128.921C170.782 146.597 163.795 162.659 149.528 174.289C140.235 181.865 129.604 187.605 119.76 194.45C117.857 195.773 115.781 198.248 117.217 200.069C117.81 200.82 118.813 201.091 119.743 201.31C131.68 204.108 143.92 205.611 156.178 205.801C161.862 205.889 167.965 204.801 173.578 205.638C177.502 206.225 181.052 206.856 185.063 207.088C185.094 204.191 184.702 201.195 184.35 198.301C184.303 197.947 184.26 197.594 184.217 197.24C183.796 193.874 183.437 190.484 183.183 187.083Z" fill="black"/>
<path d="M176.156 125.459C176.192 125.275 176.234 125.087 176.275 124.899C176.277 124.863 176.28 124.823 176.284 124.786L176.156 125.461V125.459Z" fill="#93BF96"/>
<path d="M140.717 106.169C141.199 107.255 141.934 108.031 142.806 108.548C144.934 109.81 147.872 109.518 149.903 108.375C153.118 106.566 159.204 102.638 159.773 98.076C159.897 97.0824 159.798 96.0789 159.643 95.0821C159.58 94.6767 159.508 94.2713 159.439 93.8693C158.245 87.0027 158.323 80.2557 157.745 73.3526C157.572 71.2908 156.257 62.8508 153.146 65.8447C150.764 68.1374 150.337 72.0185 148.77 74.9226C146.986 78.2271 144.812 81.2226 142.881 84.4076C141.548 86.6056 140.238 88.8784 139.504 91.3622C139.161 92.5169 138.945 93.7198 138.909 94.9824C138.799 98.7522 139.206 102.768 140.715 106.17L140.717 106.169Z" fill="#FFB27E"/>
<path d="M140.717 106.168C141.199 107.255 141.934 108.031 142.806 108.548C144.239 105.637 145.771 102.789 147.397 100.015C149.205 96.9244 154.039 91.9833 154.334 88.3681C152.523 88.0475 150.317 89.8966 148.497 90.4748C146.37 91.151 144.153 91.4683 141.945 91.4085C141.133 91.3869 140.315 91.3121 139.505 91.362C139.163 92.5167 138.947 93.7195 138.91 94.9822C138.801 98.7519 139.208 102.768 140.717 106.17V106.168Z" fill="#E89152"/>
<path d="M133.05 77.9719C133.05 79.2462 133.128 80.5338 133.286 81.8164C133.936 87.0731 135.945 92.2318 139.56 95.832C139.618 95.8885 139.675 95.9467 139.735 96.0032C139.808 96.0729 139.879 96.1411 139.952 96.2092C140.305 96.5431 140.674 96.8588 141.056 97.1595C143.571 99.1349 146.423 98.8558 149.079 97.3589C149.37 97.1944 149.661 97.0033 149.945 96.7873C151.864 95.3436 153.625 92.8731 154.851 90.9674C156.626 88.2062 156.909 85.1409 157.471 81.936C157.727 80.4806 157.924 78.9804 158.022 77.4768C158.36 72.2367 157.452 66.9468 153.342 63.3498C151.175 61.4542 148.371 60.4009 145.495 60.3477C142.549 60.2945 139.329 59.8576 136.708 61.5605C134.898 62.7368 133.587 64.6541 133.148 66.7674C132.43 70.2148 133.05 74.4381 133.052 77.9719H133.05Z" fill="#FFB27E"/>
<path d="M156.846 76.238C157.339 76.2796 157.833 76.3211 158.327 76.3626C160.055 76.5088 159.706 67.303 159.462 66.1915C158.686 62.6627 156.36 58.2334 153.071 56.4025C150.47 54.9537 133.58 57.9376 136.244 62.764C136.672 63.5366 137.589 63.8722 138.428 64.1463C141.854 65.2611 145.294 66.5254 148.762 67.1834C151.293 67.6652 153.023 67.7399 154.047 70.5793C154.324 71.3485 155.937 76.1616 156.844 76.238H156.846Z" fill="#5B371E"/>
<path d="M159.513 72.5162C160.059 71.8998 160.934 71.5027 161.721 71.7486C162.665 72.0443 163.132 73.106 163.306 74.0796C163.68 76.1713 162.984 82.0892 159.635 80.8897C156.465 79.7549 157.893 74.3504 159.515 72.5162H159.513Z" fill="#FFB27E"/>
<path d="M161.604 74.8974C160.768 74.3674 159.842 75.5736 159.67 76.3213C159.601 76.6153 159.139 76.4907 159.214 76.1967C159.352 75.6567 159.862 74.9788 160.318 74.6648C160.551 74.5053 160.853 74.3857 161.134 74.3475C161.413 74.3093 161.573 74.4189 161.797 74.5668C162.001 74.7014 161.814 75.032 161.603 74.8974H161.604Z" fill="#E89152"/>
<path d="M153.894 83.4515C153.463 83.8834 152.852 84.234 152.263 84.0745C151.589 83.8917 151.245 83.1159 151.235 82.4164C151.218 81.1936 152.006 79.9991 153.136 79.5322C156.006 78.3493 154.979 82.3649 153.896 83.4515H153.894Z" fill="#E89152"/>
<path d="M161.086 101.918C160.602 103.41 159.899 104.823 158.975 106.092C158.013 107.416 156.771 108.39 155.564 109.475C154.467 110.46 153.42 111.42 152.112 112.131C150.837 112.824 149.451 113.282 148.014 113.482C145.77 113.792 143.489 113.464 141.684 112.015C140.061 110.712 139.057 108.788 138.425 106.838C137.661 104.475 137.523 102.038 137.307 99.5841C137.262 99.0791 138.136 99.0758 138.094 99.5841C137.926 101.596 138.237 103.686 138.759 105.628C139.268 107.526 140.079 109.431 141.475 110.85C145.047 114.482 151.02 112.733 154.371 109.692C155.598 108.579 156.99 107.589 158.059 106.318C159.183 104.982 160.035 103.429 160.602 101.782C160.705 101.48 161.185 101.606 161.086 101.915V101.918Z" fill="black"/>
<path d="M157.328 83.1784C156.841 85.0823 156.555 87.0278 155.832 88.867C155.185 90.5101 154.376 92.2829 153.231 93.6419C153.055 93.8512 152.724 93.5821 152.858 93.3545C153.319 92.5753 153.856 91.8492 154.294 91.0534C154.753 90.2227 155.159 89.3621 155.504 88.4766C156.186 86.7321 156.475 84.878 156.957 83.077C157.02 82.8378 157.389 82.9391 157.328 83.1784Z" fill="#E89152"/>
<path d="M157.125 60.5249C157.783 61.1613 158.519 61.7826 158.957 62.6034C159.287 63.2264 159.465 64.4641 158.505 64.627C158.387 64.6469 158.247 64.5505 158.293 64.416C158.396 64.1169 158.636 63.8527 158.629 63.5288C158.623 63.1516 158.392 62.7894 158.18 62.492C157.767 61.9072 157.225 61.4304 156.716 60.932C156.452 60.6711 156.857 60.2674 157.123 60.5249H157.125Z" fill="#ED985B"/>
<path d="M156.354 64.9386C156.547 65.2659 156.759 65.6015 156.854 65.9736C156.965 66.4073 156.849 66.9339 156.319 66.9638C156.055 66.9788 155.874 66.5884 156.091 66.4139C156.183 66.3408 156.188 66.3591 156.193 66.2843C156.201 66.173 156.129 66.0318 156.086 65.9321C155.99 65.7111 155.859 65.5068 155.734 65.3008C155.496 64.9037 156.118 64.5415 156.354 64.9386Z" fill="#ED985B"/>
<path d="M131.345 68.2104C131.521 68.1606 133.265 61.6678 133.627 61.0099C135.194 58.1523 137.742 55.8114 140.765 54.5736C145.197 52.7594 150.535 53.3625 154.449 56.1204C157.059 57.9596 159.032 60.7524 159.921 63.8177C161.302 68.5809 159.053 67.9978 155.274 67.207C147.395 65.5555 139.078 66.049 131.347 68.2104H131.345Z" fill="#141414"/>
<path d="M133.289 68.9166C133.102 68.9515 132.914 68.9848 132.724 69.018C131.426 69.2439 130.173 68.2903 129.999 66.9146C129.748 64.9426 131.632 63.9274 133.268 63.635C142.305 62.0152 151.868 63.0336 160.17 66.9512C161.83 67.7354 162.447 70.4302 160.285 71.0715C158.87 71.4918 156.203 70.4551 154.845 70.0331C153.317 69.5579 151.773 68.8219 150.186 68.5711C146.235 67.948 142.208 67.8018 138.224 68.1458C136.545 68.2903 134.925 68.6192 133.288 68.9166H133.289Z" fill="black"/>
<path d="M158.003 75.9271C157.984 75.7327 157.885 75.5715 157.672 75.4635C157.378 75.314 157.034 75.3107 156.703 75.3107C154.484 75.3074 152.317 75.3057 150.111 75.2592C146.971 75.1927 143.83 75.1263 140.69 75.0598C139.165 75.0266 137.499 74.9136 135.997 75.2492C135.053 75.4602 133.309 75.4004 132.724 76.2444C132.53 76.5252 132.46 76.8741 132.442 77.2147C132.39 78.1949 132.737 79.1618 133.256 79.9942C133.883 80.9994 135.365 83.1692 136.725 83.1343C138.081 83.0994 138.644 81.2918 139.874 80.7186C141.728 79.853 143.581 81.752 145.088 82.488C146.875 83.3619 149.081 83.1376 150.854 82.3551C152.785 81.5044 154.532 80.2285 156.056 78.7781C156.402 78.4491 158.084 76.8309 158.001 75.9287L158.003 75.9271ZM138.418 78.4258C138.018 79.0655 137.534 79.7483 136.836 80.0839C135.762 80.599 134.105 79.5656 134.614 78.2979C135.084 77.1266 137.097 77.3974 138.059 77.542C138.443 77.6001 138.606 78.1268 138.418 78.4258ZM151.268 79.1569C150.852 79.6137 150.33 79.9643 149.74 80.1537C148.682 80.4943 147.528 80.3099 146.508 79.9277C145.999 79.7383 145.454 79.5622 145.185 79.0738C144.367 77.5902 147.277 77.4439 148.09 77.4523C149.165 77.4622 150.397 77.6284 151.27 78.3062C151.535 78.5139 151.467 78.9392 151.27 79.1569H151.268Z" fill="#141414"/>
<path d="M176.87 189.912C175.414 190.746 173.902 191.439 172.346 191.962C171.957 192.094 171.565 192.198 171.171 192.281C170.578 192.409 169.978 192.486 169.375 192.527C163.93 192.893 158.219 190.268 153.648 193.908C150.655 196.292 141.588 203.15 150.962 202.147C155.119 201.7 158.997 201.642 163.03 201.816C165.314 201.916 167.633 202.13 169.956 202.351C174.65 202.801 179.374 203.278 183.891 202.894C184.677 202.828 185.433 202.727 186.163 202.594C182.761 198.621 179.41 194.478 176.869 189.912H176.87Z" fill="#FFB27E"/>
<path d="M214.348 171.772C214.267 172.852 214.087 173.912 213.82 174.95C212.628 179.591 209.701 183.772 206.139 187.049C203.171 189.782 199.765 191.661 196.445 193.89C194.038 195.505 192.01 197.972 189.351 199.15C183.916 201.558 180.205 199.8 176.819 196.969C175.591 195.942 174.417 194.851 173.269 193.736C172.694 193.178 172.125 192.613 171.56 192.046C171.158 191.644 170.325 191.108 170.634 190.416C170.722 190.219 170.91 190.087 171.088 189.964C172.047 189.31 173.119 188.713 174.01 187.971C174.72 187.379 175.549 186.75 176.204 186.095C177.539 185.048 178.857 183.983 180.173 182.913C184.313 179.547 188.05 175.716 191.247 171.445C192.123 170.273 192.991 168.991 193.087 167.532C193.202 165.826 192.25 164.253 191.334 162.809C187.466 156.716 182.242 149.865 178.162 142.643C172.559 132.729 169.109 122.114 174.271 111.809C174.753 110.843 175.311 109.881 175.951 108.923C182.172 100.036 189.078 112.018 192.753 117.899C196.701 124.219 199.599 131.468 203.138 138.135C206.186 143.875 208.985 149.775 211.147 155.906C211.875 157.967 212.528 160.056 213.097 162.172C213.936 165.304 214.588 168.539 214.347 171.774L214.348 171.772Z" fill="#141414"/>
<path d="M175.989 109.409C174.602 112.251 173.526 115.24 172.968 118.36C172.453 121.24 172.394 124.177 172.574 127.091C172.687 128.915 172.878 130.733 173.104 132.545C173.152 132.926 172.557 132.921 172.507 132.545C171.715 126.427 171.477 120.268 173.393 114.322C173.967 112.542 174.698 110.818 175.526 109.141C175.679 108.832 176.139 109.103 175.988 109.412L175.989 109.409Z" fill="black"/>
<path d="M213.82 174.949C212.628 179.59 209.701 183.771 206.14 187.048C203.171 189.781 199.766 191.66 196.445 193.889C194.038 195.504 192.01 197.971 189.351 199.149C183.916 201.557 180.205 199.799 176.819 196.968C177.456 196.486 178.464 196.23 179.698 195.684C184.649 193.486 189.496 191.081 194.198 188.387C201.082 184.439 207.65 179.943 213.818 174.951L213.82 174.949Z" fill="black"/>
<path d="M211.151 155.904C203.931 143.48 196.503 131.135 187.44 119.997C185.718 117.879 183.899 115.774 181.592 114.315C179.194 112.798 175.8 113.415 174.273 111.807C174.755 110.841 175.313 109.879 175.953 108.921C182.174 100.034 189.08 112.016 192.755 117.897C196.702 124.217 199.601 131.466 203.139 138.133C206.188 143.873 208.987 149.773 211.149 155.904H211.151Z" fill="black"/>
</g>
<path d="M140.614 195.743C131.504 195.743 122.358 194.136 113.379 190.951C103.635 187.495 94.6131 182.382 86.567 175.748C78.4129 169.027 71.7514 161.147 66.7635 152.328C61.4964 143.015 58.3668 133.098 57.4626 122.853C56.1612 108.115 58.6127 93.4647 64.553 80.4858C70.081 68.4057 78.7603 57.59 89.6502 49.2098C100.56 40.8147 113.245 35.2075 126.33 32.9945C139.442 30.7765 153.271 31.9179 166.321 36.2924C179.393 40.6752 191.106 48.1116 200.191 57.796C205.448 63.3999 209.887 69.8461 213.386 76.9586C216.792 83.8784 219.24 91.2866 220.664 98.9789C222.089 106.671 222.456 114.465 221.753 122.144C221.032 130.036 219.195 137.645 216.295 144.757C213.393 151.87 209.384 158.594 204.379 164.741C199.509 170.722 193.795 176.037 187.396 180.541C180.997 185.045 174.065 188.628 166.79 191.195C159.314 193.834 151.63 195.339 143.953 195.671C142.84 195.719 141.726 195.743 140.611 195.743H140.614ZM139.441 41.898C135.603 41.898 131.774 42.2086 128.001 42.8466C104.448 46.8307 83.6202 62.845 73.6461 84.641C68.4256 96.0482 66.2749 108.957 67.4234 121.973C70.4816 156.602 104.295 185.743 140.604 185.746C141.578 185.746 142.547 185.724 143.524 185.683C170.664 184.508 196.784 166.126 207.04 140.981C217.297 115.836 211.481 84.4383 192.901 64.6293C179.397 50.2332 159.316 41.8963 139.442 41.8963L139.441 41.898Z" fill="#2B8435"/>
<path d="M194.465 256.504C201.301 269.802 215.34 294.966 233.625 282.866C253.709 269.576 233.642 245.228 224.374 231.195C215.676 218.025 208.574 204.143 198.597 191.776C194.159 186.232 190.28 180.46 186.449 174.438C178.697 177.691 170.945 180.945 163.193 184.198C162.234 184.6 161.162 185.125 160.883 186.127C160.645 186.979 161.079 187.862 161.501 188.641C171.455 207.058 179.481 227.308 189.261 246.154C190.697 248.923 192.436 252.557 194.465 256.504Z" fill="#2B8435"/>
<path d="M201.18 253.376C208.016 266.674 222.055 291.837 240.34 279.739C258.415 267.778 243.388 246.78 234.88 233.966C221.002 213.063 206.631 192.485 193.164 171.311C185.412 174.564 177.66 177.818 169.908 181.071C168.949 181.473 167.877 181.998 167.598 183C167.36 183.853 167.794 184.735 168.216 185.514C178.17 203.931 186.196 224.182 195.976 243.027C197.412 245.796 199.15 249.43 201.18 253.377V253.376Z" fill="#46AC4A"/>
<path opacity="0.54" d="M105.814 56.458C101.969 57.7838 97.6147 72.2181 96.2867 75.8599C93.6524 83.0854 92.6402 90.5484 90.7437 97.8752C67.3684 91.2213 93.7837 60.6049 105.814 56.458Z" fill="white"/>
<path opacity="0.54" d="M197.329 121.197C198.017 118.805 198.983 115.941 201.416 115.404C203.41 114.964 205.426 116.53 206.134 118.446C206.842 120.362 206.538 122.496 206.061 124.482C203.159 136.544 192.607 148.667 180.098 151.109C180.874 146.898 187.047 142.086 189.545 138.233C192.954 132.977 195.597 127.22 197.329 121.197Z" fill="white"/>
<path d="M143.069 192.703C133.959 192.703 124.813 191.096 115.834 187.911C106.09 184.455 97.0696 179.342 89.0219 172.708C80.8678 165.987 74.2062 158.107 69.2183 149.288C63.9513 139.974 60.8216 130.058 59.9174 119.813C58.616 105.075 61.0676 90.4247 67.0078 77.4458C72.5358 65.3657 81.2151 54.5499 92.105 46.1698C103.015 37.7747 115.7 32.1674 128.785 29.9544C141.897 27.7365 155.726 28.8779 168.776 33.2523C181.848 37.6351 193.561 45.0716 202.646 54.7559C207.903 60.3599 212.342 66.8061 215.841 73.9186C219.246 80.8384 221.695 88.2466 223.119 95.9389C224.543 103.631 224.911 111.425 224.208 119.104C223.486 126.996 221.65 134.605 218.749 141.717C215.848 148.83 211.839 155.554 206.834 161.701C201.964 167.682 196.25 172.997 189.851 177.501C183.452 182.005 176.52 185.588 169.245 188.155C161.769 190.794 154.085 192.299 146.408 192.631C145.294 192.679 144.181 192.703 143.066 192.703H143.069ZM141.896 38.8579C138.058 38.8579 134.228 39.1686 130.456 39.8066C106.902 43.7906 86.075 59.8049 76.101 81.6009C70.8804 93.0082 68.7297 105.917 69.8782 118.933C72.9364 153.561 106.749 182.703 143.059 182.706C144.033 182.706 145.002 182.684 145.979 182.643C173.119 181.468 199.238 163.086 209.495 137.941C219.752 112.796 213.936 81.3983 195.356 61.5893C181.852 47.1932 161.771 38.8563 141.897 38.8563L141.896 38.8579Z" fill="#46AC4A"/>
<path d="M230.279 297.201C222.532 300.716 213.825 302.137 205.355 301.441C200.531 301.045 196.085 299.352 191.608 297.719C187.644 296.275 182.862 295.466 180.086 291.919C177.47 288.573 181.002 287.008 180.173 284.465C179.536 282.512 175.562 282.207 173.997 281.268C171.778 279.936 170.897 277.048 171.206 274.478C171.872 268.97 174.462 269.032 171.424 264.747C169.571 262.137 165.56 262.408 165.158 258.292C164.775 254.378 169.167 251.384 169.323 247.452C169.502 242.929 164.687 240.686 161.817 238.11C158.468 235.099 155.272 229.655 154.223 225.257C153.364 221.657 155.164 218.671 157.399 216.111C157.622 215.857 157.85 215.608 158.077 215.362C160.924 212.298 164.021 209.467 167.328 206.907C167.967 206.415 168.696 206.128 169.418 205.794C169.634 205.694 169.848 205.589 170.062 205.475C171.683 208.309 173.648 210.863 175.456 213.556C177.071 215.97 178.547 218.41 180.768 220.313C180.912 220.436 181.06 220.557 181.21 220.676C188.039 226.066 195.688 226.473 203.144 229.819C208.641 232.285 217.594 236.129 217.124 243.471C217.013 245.212 216.251 246.865 215.075 248.145C214.448 248.822 213.707 249.399 212.894 249.836C212.121 250.25 211.298 250.165 211.942 250.911C212.44 251.482 213.993 251.77 214.677 252.055C215.808 252.529 216.929 253.024 218.038 253.542C221.779 255.292 228.595 257.369 228.137 262.625C227.907 265.245 225.718 267.199 223.686 268.867C226.493 269.573 229.353 270.301 231.792 271.861C234.228 273.421 236.209 275.986 236.301 278.879C236.391 281.738 234.248 284.475 231.35 284.739C239.966 286.92 236.07 294.571 230.279 297.198V297.201Z" fill="#FFB27E"/>
<path d="M192.268 181.639C192.66 178.534 193.797 175.447 195.889 172.473C196.863 171.088 198.241 169.702 199.933 169.764C201.434 169.817 202.672 171.04 203.294 172.405C203.917 173.771 204.072 175.295 204.401 176.76C208.137 193.447 225.702 192.915 236.785 201.649C242.655 206.276 246.142 212.497 250.128 218.642C254.243 224.987 258.28 231.362 260.648 238.664C263.157 246.396 264.732 264.956 255.253 269.255C251.974 270.742 248.067 269.656 244.962 267.832C235.216 262.105 226.601 255.657 221.979 245.002C215.728 230.591 216.107 215.713 203.226 204.532C196.197 198.43 190.958 192.012 192.266 181.641L192.268 181.639Z" fill="#FFB27E"/>
<path d="M169.418 239.678C179.24 244.815 190.049 247.595 200.781 250.112C202.137 250.429 203.495 250.747 204.851 251.066C205.897 251.311 207.783 252.126 208.782 251.542C209.914 250.881 209.093 249.718 208.204 249.376C206.925 248.884 205.473 248.713 204.137 248.422C198.697 247.236 193.248 246.066 187.863 244.644C181.805 243.044 175.895 241.017 170.31 238.155C169.301 237.638 168.409 239.152 169.419 239.68L169.418 239.678Z" fill="#E89152"/>
<path d="M187.682 268.756C190.408 269.041 193.125 269.392 195.813 269.942C197.006 270.186 198.173 270.487 199.395 270.547C200.65 270.606 201.884 270.668 203.134 270.803C205.785 271.09 208.463 271.002 211.127 271.048C212.896 271.08 215.186 271.288 216.386 269.681C217.079 268.752 215.721 267.446 214.795 268.091C214.426 268.347 213.579 268.46 213.113 268.53C211.947 268.702 210.64 268.548 209.46 268.563C206.995 268.593 204.574 268.596 202.116 268.407C201.01 268.322 199.892 268.407 198.791 268.292C197.623 268.172 196.464 267.83 195.308 267.624C192.785 267.176 190.237 266.878 187.687 266.629C186.323 266.496 186.341 268.614 187.687 268.756H187.682Z" fill="#E89152"/>
<path d="M204.138 288.547C206.538 288.736 209.018 288.673 211.396 289.044C212.543 289.223 213.491 289.178 214.637 289.027C215.723 288.884 216.816 288.969 217.903 288.841C218.992 288.713 219.993 288.585 221.095 288.627C222.127 288.665 223.026 288.357 224.028 288.294C224.598 288.258 225.167 288.386 225.738 288.344C226.264 288.304 226.772 288.15 227.289 288.067C228.283 287.907 229.111 287.751 230.025 287.309C230.909 286.882 230.735 285.309 229.741 285.136C228.783 284.97 227.931 285.242 226.987 285.385C226.508 285.457 226.031 285.605 225.552 285.658C225.045 285.714 224.535 285.611 224.026 285.633C222.959 285.679 222.005 286.033 220.922 286.012C219.82 285.99 218.818 286.151 217.734 286.304C216.702 286.45 215.658 286.38 214.626 286.512C214.129 286.575 213.63 286.688 213.13 286.719C212.533 286.758 211.958 286.606 211.37 286.532C208.985 286.229 206.537 286.271 204.138 286.096C202.563 285.982 202.576 288.424 204.138 288.547Z" fill="#E89152"/>
<path opacity="0.61" d="M107.82 206.553C112.838 204.83 118.638 206.614 122.511 210.238C125.863 213.376 127.966 218.407 126.179 222.637C124.604 226.362 120.608 228.382 117.99 231.465C116.451 233.278 115.427 235.503 114.975 237.832C114.591 239.807 115.331 242.15 113.566 243.607C110.862 245.84 107.943 243.238 107.393 240.439C106.588 236.35 109.738 232.653 112.597 229.621C115.456 226.589 118.469 222.696 117.347 218.684C116.473 215.554 112.823 213.504 109.695 214.386C108.053 214.85 106.706 216.082 105.935 217.584C105.24 218.938 105.596 220.935 103.884 221.548C103.005 221.862 101.961 221.597 101.296 220.939C100.106 219.761 100.226 217.538 100.283 216.009C100.435 211.821 103.997 207.865 107.823 206.553H107.82Z" fill="#B8E1BB"/>
<path opacity="0.61" d="M110.83 254.237C110.94 253.488 111.267 252.77 111.779 252.272C113.037 251.051 115.175 250.994 116.464 252.207C117.892 253.549 117.728 256.017 116.265 257.271C115.002 258.354 113.085 258.112 111.829 257.148C110.971 256.492 110.67 255.331 110.83 254.237Z" fill="#B8E1BB"/>
<path opacity="0.61" d="M85.1112 218.947C85.196 217.748 85.304 216.515 85.8359 215.437C86.3677 214.357 87.4198 213.45 88.6232 213.441C89.9096 213.433 91.0232 214.455 91.5251 215.64C92.0271 216.824 92.047 218.15 92.0553 219.436C92.1268 228.733 92.1467 238.032 92.1683 247.329C92.1717 248.869 92.1617 250.473 91.4919 251.86C90.1705 254.591 86.6852 254.766 85.8575 251.626C85.1278 248.856 85.5001 245.782 85.3323 242.935C85.1478 239.796 85.0464 236.655 84.9134 233.515C84.7073 228.66 84.7722 223.795 85.1112 218.949V218.947Z" fill="#B8E1BB"/>
<path opacity="0.61" d="M85.9372 261.917C86.4641 259.937 89.3212 259.068 90.8619 260.422C92.4027 261.776 91.9074 264.72 90.0093 265.496C88.1112 266.272 85.6929 264.519 85.8425 262.475L85.9356 261.917H85.9372Z" fill="#B8E1BB"/>
<path opacity="0.61" d="M190.165 63.7845C191.394 63.7197 192.617 63.6931 193.764 63.5818C199.029 63.0701 204.298 63.7679 209.567 63.7679H229.693C235.536 63.7679 240.273 59.0329 240.273 53.1913V41.2757C240.273 35.4342 235.536 30.6992 229.693 30.6992H190.109C184.265 30.6992 179.528 35.4342 179.528 41.2757C179.528 49.7373 179.558 58.1091 179.944 66.5657C179.962 66.9578 180.007 67.4063 180.324 67.6389C180.914 68.0709 181.647 67.3632 182.108 66.7933C184.095 64.3394 187.144 63.9456 190.165 63.7861V63.7845Z" fill="#B8E1BB"/>
<path d="M251.667 82.2206C251.166 82.2206 250.515 81.9764 249.802 81.0958C248.562 79.5657 246.511 79.3331 244.515 79.2267C244.239 79.2118 243.963 79.2002 243.69 79.1885C243.054 79.1603 242.396 79.1321 241.766 79.0706C239.334 78.8347 236.821 78.9559 234.391 79.0739C232.955 79.1437 231.471 79.2151 229.997 79.2151H214.878C209.912 79.2151 205.872 75.1762 205.872 70.212V61.262C205.872 56.2977 209.912 52.2588 214.878 52.2588H244.613C249.579 52.2588 253.62 56.2977 253.62 61.2636C253.62 67.6766 253.596 73.9584 253.307 80.3083C253.292 80.6439 253.256 81.4314 252.587 81.9199C252.44 82.0279 252.112 82.2206 251.665 82.2206H251.667ZM238.681 76.8177C239.773 76.8177 240.872 76.8559 241.97 76.9639C242.542 77.0187 243.145 77.0453 243.782 77.0736C244.063 77.0852 244.344 77.0985 244.626 77.1134C246.892 77.2331 249.441 77.5321 251.223 79.5025C251.481 73.4367 251.502 67.4108 251.502 61.2636C251.502 57.4656 248.412 54.3771 244.613 54.3771H214.878C211.081 54.3771 207.989 57.4656 207.989 61.2636V70.2136C207.989 74.0099 211.079 77.1001 214.878 77.1001H229.997C231.418 77.1001 232.877 77.0287 234.288 76.9606C235.729 76.8908 237.2 76.8194 238.681 76.8194V76.8177Z" fill="#B8E1BB"/>
<path d="M40.5311 37.4231C41.9023 37.35 43.2669 37.3201 44.5467 37.1955C50.4221 36.624 56.3025 37.4032 62.1812 37.4032H84.6407C91.1626 37.4032 96.448 32.1182 96.448 25.6005V12.3026C96.448 5.78327 91.161 0.5 84.6407 0.5H40.468C33.946 0.5 28.6606 5.78494 28.6606 12.3026C28.6606 21.7444 28.6939 31.0882 29.1244 40.525C29.1443 40.9636 29.1958 41.4637 29.5498 41.7212C30.2097 42.203 31.0258 41.4121 31.5393 40.7775C33.7565 38.0378 37.1605 37.5992 40.5311 37.4214V37.4231Z" fill="#B8E1BB"/>
<path opacity="0.61" d="M103.921 58.8355C102.549 58.7624 101.185 58.7325 99.9051 58.6079C94.0297 58.0364 88.1493 58.8156 82.2706 58.8156H59.8111C53.2892 58.8156 48.0038 53.5306 48.0038 47.0129V33.7167C48.0038 27.1973 53.2908 21.9141 59.8111 21.9141H103.984C110.506 21.9141 115.791 27.199 115.791 33.7167C115.791 43.1585 115.758 52.5022 115.327 61.939C115.307 62.3776 115.256 62.8777 114.902 63.1352C114.242 63.617 113.426 62.8262 112.912 62.1916C110.694 59.4519 107.291 59.0133 103.919 58.8355H103.921Z" fill="#B8E1BB"/>
<path d="M38.4984 11.2178L85.7061 11.2178C85.9778 11.2178 86.1981 10.9976 86.1981 10.726V9.48493C86.1981 9.21333 85.9778 8.99315 85.7061 8.99315L38.4984 8.99315C38.2267 8.99315 38.0064 9.21333 38.0064 9.48493V10.726C38.0064 10.9976 38.2267 11.2178 38.4984 11.2178Z" fill="white"/>
<path d="M38.4984 17.0576L85.7061 17.0576C85.9778 17.0576 86.1981 16.8374 86.1981 16.5658V15.3248C86.1981 15.0532 85.9778 14.833 85.7061 14.833L38.4984 14.833C38.2267 14.833 38.0064 15.0532 38.0064 15.3248V16.5658C38.0064 16.8374 38.2267 17.0576 38.4984 17.0576Z" fill="white"/>
<path opacity="0.61" d="M39.8337 122.038C48.9461 112.929 48.9461 98.1608 39.8337 89.052C30.7214 79.9432 15.9472 79.9432 6.83484 89.052C-2.27756 98.1608 -2.27755 112.929 6.83484 122.038C15.9472 131.147 30.7213 131.147 39.8337 122.038Z" fill="#B8E1BB"/>
<path d="M8.41169 103.413C8.03606 101.396 7.98288 99.1549 8.69092 97.1712C9.04826 96.171 9.60505 95.2456 10.3713 94.5046C11.1109 93.7902 12.2311 92.815 13.2998 92.8233C15.266 92.8382 16.7686 94.3385 17.6594 95.96C18.4107 97.329 19.4943 100.074 18.2395 101.433C17.2456 102.509 14.7591 101.802 14.2804 103.232C13.6671 105.063 14.3237 107.705 15.1281 109.371C15.7431 110.647 16.6406 111.783 17.7292 112.689C18.537 113.362 19.9564 114.852 21.0451 113.998C22.1503 113.131 22.5692 111.674 24.3094 111.941C25.1703 112.074 25.9232 112.616 26.5016 113.269C27.7299 114.654 28.3133 116.693 27.9443 118.519C27.5919 120.255 25.0656 120.81 23.5598 120.997C21.8246 121.212 20.214 120.889 18.7514 119.923C17.332 118.984 15.9226 117.997 14.8007 116.716C12.1912 113.737 10.2516 110.177 9.13801 106.377C8.85712 105.417 8.60116 104.422 8.41335 103.415L8.41169 103.413Z" fill="white"/>
<path d="M29.9122 111.795C29.8225 111.795 29.7327 111.785 29.6413 111.767C28.9283 111.617 28.4712 110.92 28.6208 110.207C29.1178 107.828 28.7521 105.233 27.6152 103.084C26.4784 100.936 24.5371 99.1735 22.29 98.2481C21.6169 97.9706 21.2961 97.1997 21.5736 96.5268C21.8512 95.854 22.6224 95.5333 23.2955 95.8108C26.1427 96.9837 28.5045 99.1286 29.9455 101.852C31.3865 104.573 31.8336 107.733 31.202 110.747C31.0723 111.368 30.5239 111.795 29.9122 111.795Z" fill="white"/>
<path d="M35.3489 112.918C35.2591 112.918 35.1694 112.908 35.0779 112.89C34.3649 112.74 33.9078 112.043 34.0574 111.33C34.8403 107.587 34.2635 103.5 32.4735 100.119C30.6834 96.7394 27.6286 93.9632 24.0917 92.5062C23.4185 92.2287 23.0978 91.4578 23.3753 90.7849C23.6529 90.1121 24.4224 89.7931 25.0972 90.0689C29.2541 91.7834 32.7012 94.9135 34.8037 98.886C36.9062 102.858 37.5577 107.469 36.637 111.868C36.5073 112.49 35.9588 112.917 35.3472 112.917L35.3489 112.918Z" fill="white"/>
<path d="M40.5029 113.397C40.4132 113.397 40.3234 113.387 40.232 113.369C39.519 113.219 39.0619 112.522 39.2115 111.809C40.2038 107.067 39.4725 101.894 37.2071 97.6122C34.94 93.3307 31.0707 89.8168 26.5914 87.971C25.9183 87.6935 25.5975 86.9227 25.8751 86.2498C26.1527 85.5769 26.9222 85.2579 27.597 85.5337C32.6347 87.6105 36.9877 91.563 39.5373 96.3794C42.0869 101.194 42.9096 107.016 41.7927 112.347C41.6631 112.969 41.1146 113.396 40.5029 113.396V113.397Z" fill="white"/>
<g opacity="0.61">
<path d="M241.801 151.364C242.934 141.812 244.098 132.143 247.561 123.168C247.954 122.149 248.833 120.93 249.843 121.342C250.517 121.616 250.713 122.46 250.782 123.183C251.1 126.456 250.3 129.797 249.695 132.995C248.509 139.255 247.807 145.535 246.845 151.822C246.38 154.864 245.914 157.908 245.449 160.95C244.525 166.989 243.275 172.914 241.98 178.901C241.814 179.667 241.639 180.455 241.189 181.096C240.385 182.239 239.201 182.314 238.601 181.006C238.124 179.966 238.427 178.832 238.623 177.76C239.141 174.916 239.352 171.99 239.693 169.119C240.396 163.201 241.099 157.283 241.801 151.365V151.364Z" fill="#B8E1BB"/>
<path d="M250.138 152.962C250.455 151.065 250.789 149.169 251.141 147.279C251.68 144.383 251.962 141.465 252.483 138.551C253.295 134.006 254.018 129.066 255.679 124.762C256.071 123.743 256.95 122.524 257.961 122.936C258.634 123.21 258.83 124.054 258.9 124.777C259.232 128.212 258.18 131.256 257.539 134.64C256.357 140.889 255.282 147.171 254.467 153.477C253.949 157.488 253.186 161.46 252.449 165.436C251.78 169.046 251.577 172.713 250.88 176.302C250.488 178.324 249.938 180.314 249.235 182.25C249.07 182.705 248.891 183.167 248.575 183.536C248.259 183.904 247.779 184.165 247.3 184.095C246.795 184.021 246.398 183.594 246.218 183.117C246.039 182.638 246.039 182.115 246.055 181.605C246.178 177.749 247.33 174.102 247.741 170.329C248.211 166.013 248.773 161.706 249.424 157.413C249.651 155.928 249.887 154.446 250.134 152.964L250.138 152.962Z" fill="#B8E1BB"/>
<path d="M237.085 130.479C233.886 134.385 234.501 140.731 237.434 144.627C239.605 147.51 243.002 149.17 246.323 150.585C249.644 152.001 253.114 153.333 255.734 155.817C257.564 157.553 258.48 159.489 257.871 161.981C256.382 168.072 249.988 170.991 244.063 170.675C239.623 170.437 233.971 167.774 234.616 162.441C234.722 161.559 235.004 160.632 234.66 159.813C234.23 158.784 232.902 158.354 231.828 158.656C227.213 159.954 228.732 168.195 231.23 170.717C233.429 172.936 236.522 176.266 239.643 177.06C242.215 177.713 244.864 178.2 247.526 178.138C250.327 178.073 252.066 176.93 254.552 175.809C257.311 174.564 259.831 172.737 261.674 170.318C264.623 166.448 266.305 160.055 263.597 155.583C262.444 153.677 260.816 151.978 258.961 150.74C256.566 149.143 253.829 148.155 251.186 147.01C249.019 146.071 246.855 144.998 245.068 143.426C243.536 142.079 241.804 140.535 241.285 138.484C240.838 136.718 241.209 134.451 242.404 133.026C244.437 130.599 248.22 130.394 251.082 131.07C254.928 131.979 259.611 134.101 259.994 138.533C260.044 139.115 260.017 139.706 260.132 140.278C260.246 140.851 260.535 141.426 261.049 141.705C261.734 142.079 262.64 141.796 263.165 141.222C263.69 140.645 263.901 139.848 263.974 139.07C264.237 136.335 262.789 133.509 260.993 131.541C257.745 127.983 252.975 125.923 248.175 125.815C244.423 125.731 239.497 127.533 237.084 130.477L237.085 130.479Z" fill="#B8E1BB"/>
</g>
<g opacity="0.61">
<path d="M57.3562 207.929C48.5207 209.944 36.4125 211.453 30.6817 202.288C29.1377 199.819 28.1587 196.995 27.8828 194.094C27.2994 187.972 29.9056 182.218 34.6242 178.339C36.6635 176.663 39.4957 174.8 42.0187 173.989C45.4376 172.891 49.847 173.112 53.5834 172.921C54.1235 171.222 54.6504 169.52 55.1474 167.809C53.4703 166.97 51.5191 166.786 49.6576 166.815C45.288 166.884 40.5777 168.121 36.6851 170.107C30.7166 173.15 25.6955 178.186 23.1642 184.436C22.531 186.003 22.0523 187.691 21.6767 189.338C20.8739 192.871 21.5022 196.595 22.5393 200.015C23.0728 201.775 23.9404 203.252 25.0207 204.72C26.0446 206.111 27.1332 207.47 28.4396 208.61C31.1721 210.994 34.7322 212.67 38.166 213.782C41.6846 214.922 45.3162 215.162 48.9877 215.149C52.4382 215.138 56.2643 214.093 59.1446 212.124C59.7579 211.705 60.3546 211.22 60.7053 210.565C61.056 209.911 61.1109 209.053 60.6704 208.455C59.9657 207.498 58.5147 207.663 57.3562 207.927V207.929Z" fill="#B8E1BB"/>
</g>
<g opacity="0.61">
<path d="M48.6204 189.157C49.0575 187.443 49.5379 185.742 50.0448 184.047C39.6951 185.148 29.244 186.316 19.0389 188.438C17.7658 188.702 16.9115 190.27 17.3071 191.488C17.7459 192.844 18.9924 193.49 20.3586 193.219C21.916 192.912 23.475 192.606 25.039 192.332C32.4069 191.04 39.8414 190.194 47.2642 189.302C47.7029 189.249 48.1583 189.202 48.6221 189.157H48.6204Z" fill="#B8E1BB"/>
</g>
<g opacity="0.61">
<path d="M47.6214 193.519C47.6464 193.396 47.673 193.273 47.6979 193.15C45.3959 193.476 43.099 194.174 40.8552 194.494C34.1072 195.458 27.3426 196.478 20.7591 198.284C18.9541 198.779 15.9125 200.947 18.8045 202.589C20.6112 203.614 22.6373 202.664 24.542 202.375C27.311 201.954 30.0866 201.594 32.859 201.202C37.5377 200.54 42.2214 199.813 46.802 198.638C46.9782 196.913 47.2857 195.197 47.6231 193.519H47.6214Z" fill="#B8E1BB"/>
</g>
</g>
<defs>
<clipPath id="clip0_605_10164">
<rect width="311.288" height="318" fill="white" transform="translate(0 0.5)"/>
</clipPath>
</defs>
</svg>
