<svg width="120" height="25" viewBox="0 0 120 25" fill="none" xmlns="http://www.w3.org/2000/svg">
<g clip-path="url(#clip0)">
<path d="M11.0155 7.91626C12.2003 9.1903 12.8464 10.8811 12.8163 12.629C12.8453 14.3825 12.1997 16.0789 11.0155 17.3611C10.4299 18.0104 9.71196 18.5236 8.91111 18.8655C8.11026 19.2074 7.24557 19.3697 6.37663 19.3413C5.36358 19.3866 4.35543 19.175 3.44405 18.7258C2.53266 18.2766 1.74702 17.6041 1.15869 16.7696V24.4013H-0.03125V6.28319H1.15869V8.5592C1.74702 7.7247 2.53266 7.05221 3.44405 6.60302C4.35543 6.15382 5.36358 5.9422 6.37663 5.98743C7.2417 5.95258 8.10402 6.10688 8.90463 6.43977C9.70524 6.77266 10.4253 7.2763 11.0155 7.91626ZM1.15869 10.2437V15.0594C1.61908 16.007 2.33131 16.8066 3.21572 17.3686C4.10014 17.9307 5.12187 18.233 6.16664 18.2419C6.88622 18.2613 7.60191 18.129 8.26805 17.8534C8.9342 17.5777 9.53616 17.1648 10.0355 16.641C10.5449 16.1148 10.9452 15.4912 11.2129 14.8067C11.4806 14.1222 11.6104 13.3906 11.5946 12.6547C11.6138 11.9223 11.4856 11.1936 11.2176 10.5127C10.9496 9.8319 10.5474 9.21321 10.0355 8.69422C9.53744 8.16827 8.93585 7.75353 8.26951 7.4767C7.60317 7.19987 6.88684 7.06707 6.16664 7.08686C5.12169 7.07984 4.09626 7.37282 3.20968 7.93168C2.32311 8.49055 1.61185 9.29233 1.15869 10.2437Z" fill="#43607E"/>
<path d="M15.4648 19.0455V6.28314H16.6548V8.95778C17.1854 8.06605 17.9301 7.32399 18.8199 6.80027C19.7098 6.27656 20.716 5.98813 21.7455 5.96167V7.18969C20.6092 7.17401 19.5004 7.54292 18.5956 8.23769C17.754 8.83991 17.0792 9.65009 16.6357 10.5909V19.0455H15.4648Z" fill="#43607E"/>
<path d="M51.1628 19.0981H49.2072L49.0846 17.1904C48.599 17.9099 47.9372 18.4901 47.1637 18.8743C46.3901 19.2586 45.5313 19.4339 44.6708 19.383C43.8526 19.4103 43.0386 19.2533 42.2879 18.9233C41.5372 18.5933 40.8686 18.0987 40.3305 17.4753C39.2041 16.1111 38.6129 14.3763 38.6692 12.6006C38.6136 10.8365 39.2003 9.11311 40.3183 7.75691C40.8566 7.12567 41.5282 6.62439 42.2835 6.28996C43.0389 5.95552 43.8588 5.79643 44.6831 5.82439C46.6366 5.82439 48.067 6.51192 48.9743 7.88699V0.280762H51.169L51.1628 19.0981ZM42.0777 9.24967C41.283 10.176 40.8724 11.3762 40.9313 12.6006C40.8756 13.8314 41.2706 15.0398 42.0409 15.9949C42.4037 16.4012 42.8462 16.7267 43.3404 16.9506C43.8345 17.1746 44.3694 17.292 44.911 17.2955C45.4525 17.299 45.9889 17.1885 46.4858 16.971C46.9828 16.7534 47.4294 16.4337 47.7973 16.0321C48.6207 15.1379 49.0613 13.9514 49.0233 12.7307V12.6006C49.0688 11.3564 48.6285 10.144 47.7973 9.22489C47.4506 8.82268 47.023 8.49974 46.5431 8.27759C46.0632 8.05543 45.542 7.93917 45.0141 7.93654C44.459 7.9222 43.9076 8.03256 43.3998 8.25964C42.892 8.48672 42.4404 8.82486 42.0777 9.24967Z" fill="#43607E"/>
<path d="M63.8407 7.55249C64.8952 8.70458 65.4285 10.3274 65.4285 12.421V13.4801H55.6506C55.685 14.5422 56.1243 15.5497 56.8767 16.2922C57.6256 16.9858 58.6139 17.355 59.6292 17.3204C61.4111 17.3204 62.5677 16.6164 63.099 15.2083H65.2936C64.9512 16.4424 64.2194 17.5298 63.2093 18.3053C62.1489 19.0628 60.8719 19.4479 59.574 19.4016C58.7422 19.4298 57.914 19.2787 57.1445 18.9583C56.3749 18.6379 55.6818 18.1556 55.1111 17.5434C53.9205 16.2026 53.2976 14.4436 53.3763 12.644C53.2991 10.8516 53.9146 9.09913 55.0928 7.75689C55.6559 7.12347 56.3494 6.62224 57.1246 6.28839C57.8998 5.95454 58.7379 5.79616 59.5802 5.82437C60.3715 5.78647 61.1616 5.9212 61.8968 6.2194C62.632 6.5176 63.295 6.97227 63.8407 7.55249ZM56.9257 8.87801C56.2236 9.57511 55.7891 10.5014 55.6997 11.4919H63.2216C63.245 11.0074 63.1669 10.5234 62.9924 10.0716C62.8178 9.61976 62.5508 9.21028 62.2088 8.86995C61.8667 8.52962 61.4574 8.26613 61.0076 8.09674C60.5578 7.92734 60.0776 7.85586 59.5986 7.88697C58.6129 7.84694 57.6518 8.20332 56.9257 8.87801Z" fill="#43607E"/>
<path d="M76.9421 7.11252C77.6885 7.98603 78.0394 9.28782 78.0394 10.6679V19.0731H75.8202V11.0209C75.8202 9.52427 75.5228 8.63155 74.4209 8.15283C74.1021 8.0143 73.4144 7.96817 73.0678 7.98603C72.6449 7.98093 72.2272 8.08043 71.8511 8.27584C71.475 8.47124 71.1519 8.75664 70.9099 9.10714C70.3162 9.99931 70.0257 11.0624 70.0824 12.136V19.0981H67.8877V6.09066H69.8555L69.9843 7.87453C70.3202 7.20859 70.8432 6.65764 71.4877 6.29072C72.1322 5.92381 72.8695 5.75725 73.6073 5.81193C74.1853 5.78201 74.8798 5.86095 75.4121 6.09066C75.9443 6.32038 76.5638 6.66989 76.9421 7.11252Z" fill="#43607E"/>
<path d="M92.1888 8.0665H89.9451C90.3676 8.8008 90.5798 9.63927 90.5581 10.4884C90.5748 11.1034 90.4633 11.7151 90.231 12.2838C89.9986 12.8526 89.6506 13.3656 89.2095 13.7898C88.2597 14.6767 87.0016 15.1486 85.709 15.1029C84.7374 15.12 83.7782 14.8809 82.9259 14.4092C82.7588 14.5776 82.6275 14.7788 82.54 15.0003C82.4525 15.2218 82.4107 15.4591 82.4171 15.6975C82.409 15.8831 82.4455 16.0679 82.5234 16.2361C82.6014 16.4044 82.7184 16.5511 82.8646 16.6638C83.2099 16.9089 83.6261 17.031 84.0477 17.0106H87.4684C88.553 16.9312 89.6287 17.2575 90.4907 17.9273C90.8448 18.2578 91.1215 18.6639 91.3007 19.1161C91.48 19.5683 91.5572 20.0551 91.5267 20.5412C91.5559 21.1558 91.4405 21.7687 91.1901 22.3296C90.9397 22.8905 90.5614 23.3835 90.0861 23.7683C88.9496 24.5951 87.5672 25.0039 86.1688 24.9266C84.6973 25.0218 83.2332 24.6493 81.9818 23.8612C81.5101 23.5263 81.1297 23.0765 80.8757 22.5536C80.6217 22.0306 80.5025 21.4514 80.5289 20.8695C80.5094 20.383 80.6321 19.9015 80.8817 19.4851C81.1314 19.0687 81.497 18.7359 81.9328 18.5282C81.4402 18.2659 81.0191 17.8851 80.7067 17.4194C80.3894 16.9483 80.2206 16.3912 80.2224 15.8214C80.2053 15.3012 80.3182 14.7851 80.5507 14.3206C80.7832 13.8562 81.1278 13.4585 81.5527 13.1642C81 12.3833 80.7138 11.4419 80.7373 10.4822C80.7168 9.85926 80.8263 9.23898 81.0587 8.66165C81.2911 8.08432 81.6411 7.56287 82.086 7.13121C82.5752 6.68341 83.147 6.33748 83.7687 6.11322C84.3904 5.88897 85.0498 5.79078 85.709 5.82427C86.3323 5.82577 86.9519 5.91968 87.5481 6.103H92.2133L92.1888 8.0665ZM83.1956 19.4882C83.0248 19.6586 82.8921 19.8639 82.8064 20.0904C82.7208 20.3169 82.6842 20.5593 82.699 20.8014C82.6884 21.1283 82.7675 21.4518 82.9277 21.736C83.0878 22.0203 83.3227 22.2542 83.6063 22.4118C84.3874 22.8247 85.2641 23.0173 86.1443 22.9693C86.9753 23.0129 87.7995 22.7966 88.5045 22.3499C88.7756 22.1558 88.9937 21.8956 89.1384 21.5934C89.2831 21.2912 89.3497 20.957 89.3321 20.6217C89.3321 19.5068 88.5596 18.9432 87.0087 18.9432H84.5565C84.0538 18.9585 83.5722 19.1514 83.1956 19.4882ZM83.6676 12.3961C84.2228 12.8759 84.9294 13.1396 85.66 13.1396C86.3906 13.1396 87.0971 12.8759 87.6523 12.3961C87.904 12.1495 88.1017 11.8523 88.2326 11.5237C88.3636 11.1951 88.4249 10.8424 88.4125 10.4884C88.4255 10.1287 88.3647 9.77026 88.2338 9.43554C88.103 9.10082 87.905 8.79708 87.6523 8.54344C87.1023 8.05268 86.3938 7.78185 85.66 7.78185C84.9262 7.78185 84.2177 8.05268 83.6676 8.54344C83.4142 8.79677 83.2152 9.10031 83.0834 9.435C82.9515 9.76969 82.8895 10.1283 82.9013 10.4884C82.8902 10.8428 82.9526 11.1956 83.0846 11.5242C83.2165 11.8528 83.4152 12.1498 83.6676 12.3961Z" fill="#43607E"/>
<path d="M97.2603 3.16705C97.1179 3.31021 96.9485 3.42292 96.7621 3.49848C96.5756 3.57404 96.3761 3.61088 96.1752 3.60682C95.9763 3.61027 95.7788 3.5731 95.5944 3.49753C95.4101 3.42196 95.2427 3.30955 95.1024 3.16705C94.9629 3.02962 94.8528 2.86469 94.779 2.68249C94.7052 2.50029 94.6692 2.30471 94.6733 2.10787C94.6683 1.9072 94.7037 1.70758 94.7774 1.52116C94.851 1.33473 94.9615 1.1654 95.102 1.02346C95.2425 0.88151 95.4101 0.769916 95.5946 0.69546C95.7791 0.621004 95.9766 0.585241 96.1752 0.590345C96.3757 0.585116 96.5751 0.620823 96.7615 0.695326C96.948 0.769828 97.1176 0.881594 97.2603 1.02393C97.4053 1.16328 97.52 1.33164 97.5971 1.51827C97.6741 1.7049 97.7118 1.9057 97.7078 2.10787C97.7111 2.30628 97.6729 2.50315 97.5958 2.68565C97.5187 2.86814 97.4044 3.03218 97.2603 3.16705ZM97.2603 19.098H95.0657V6.09061H97.2603V19.098Z" fill="#43607E"/>
<path d="M29.0848 19.3798C28.188 19.4195 27.293 19.2661 26.4578 18.9293C25.6225 18.5926 24.8656 18.08 24.2359 17.4248C23.6286 16.7887 23.1522 16.034 22.8352 15.2056C22.5182 14.3772 22.367 13.492 22.3906 12.6026C22.3718 11.7162 22.526 10.8349 22.8439 10.0102C23.1619 9.18556 23.6373 8.43414 24.2423 7.79994C24.8686 7.13952 25.6231 6.62087 26.4572 6.27741C27.2913 5.93395 28.1864 5.77332 29.0848 5.80588C29.9805 5.77419 30.8726 5.9366 31.7027 6.28248C32.5328 6.62836 33.2822 7.14991 33.9018 7.81297C34.5157 8.44342 35.0007 9.19286 35.3285 10.0175C35.6563 10.8421 35.8203 11.7254 35.8108 12.6157C35.8208 13.505 35.6571 14.3875 35.3293 15.2111C35.0014 16.0348 34.5161 16.783 33.9018 17.4118C33.2789 18.0678 32.5279 18.5821 31.698 18.9212C30.868 19.2603 29.9776 19.4165 29.0848 19.3798ZM29.0848 18.2459C29.8062 18.2635 30.5235 18.1305 31.1931 17.8549C31.8626 17.5793 32.4703 17.1669 32.9792 16.6429C33.497 16.1146 33.9045 15.4841 34.1768 14.7895C34.4492 14.0949 34.5808 13.3509 34.5636 12.6026C34.5819 11.8542 34.4509 11.1098 34.1784 10.4151C33.906 9.72037 33.4979 9.08992 32.9792 8.56237C32.476 8.02891 31.8699 7.60857 31.1994 7.32809C30.5289 7.04761 29.8088 6.91314 29.0848 6.93324C28.3572 6.91426 27.6335 7.04914 26.9591 7.32945C26.2847 7.60976 25.6739 8.02947 25.165 8.56237C24.6524 9.09359 24.2496 9.72514 23.9807 10.4193C23.7117 11.1135 23.5821 11.856 23.5996 12.6026C23.5777 13.3476 23.7045 14.0893 23.9721 14.7823C24.2396 15.4754 24.6425 16.1053 25.1559 16.6335C25.6693 17.1618 26.2825 17.5772 26.9581 17.8544C27.6336 18.1317 28.3573 18.2649 29.0848 18.2459Z" fill="#43607E"/>
<path fill-rule="evenodd" clip-rule="evenodd" d="M114.998 0H100.99V19.0476H120V5.29101L114.998 0ZM108.28 14.7634L105.783 11.8528V14.7634H103.992V5.29101H105.783V10.4885L107.964 8.02616H110.163L107.409 11.0732L110.595 14.7829L108.28 14.7634ZM116.973 14.7634H111.125V13.503L114.323 9.60489H111.326V8.00667H116.772V9.30604L113.562 13.1651H116.973V14.7634Z" fill="#46AC4A"/>
</g>
<defs>
<clipPath id="clip0">
<rect width="120" height="25" fill="white"/>
</clipPath>
</defs>
</svg>
